 http://www.shotpix.com/images/05724817912375833995.jpg

 
http://www.imdb.com/title/tt1321870/


Plot: Los Angeles, 1949: A secret crew of police officers led by two determined sergeants work together in an effort to take down the ruthless mob king Mickey Cohen who runs the city.
 


Director: 
Ruben Fleischer

 Writers: 
Will Beall, Paul Lieberman (book)
 
Stars:
 Sean Penn, Ryan Gosling and Emma Stone

Genres:
 Action | Crime | Drama | Thriller 



Format                                   : AVI
Format/Info                              : Audio Video Interleave
File size                                : 699 MiB
Duration                                 : 1h 43mn
Overall bit rate                         : 943 Kbps
Writing application                      : Lavf54.59.103

Video
ID                                       : 0
Format                                   : AVC
Format/Info                              : Advanced Video Codec
Format profile                           : Main@L4.1
Format settings, CABAC                   : Yes
Format settings, ReFrames                : 2 frames
Codec ID                                 : H264
Duration                                 : 1h 43mn
Bit rate                                 : 800 Kbps
Width                                    : 640 pixels
Height                                   : 304 pixels
Display aspect ratio                     : 2.045
Frame rate mode                          : Variable
Frame rate                               : 29.970 fps
Color space                              : YUV
Chroma subsampling                       : 4:2:0
Bit depth                                : 8 bits
Scan type                                : Progressive
Bits/(Pixel*Frame)                       : 0.137
Stream size                              : 594 MiB (85%)
Writing library                          : x264 core 129 r2230
Encoding settings                        : cabac=1 / ref=2 / deblock=1:0:0 / analyse=0:0x131 / me=hex / subme=7 / psy=1 / psy_rd=1.00:0.00 / mixed_ref=0 / me_range=16 / chroma_me=1 / trellis=1 / 8x8dct=0 / cqm=0 / deadzone=21,11 / fast_pskip=1 / chroma_qp_offset=-2 / threads=3 / lookahead_threads=1 / sliced_threads=0 / nr=0 / decimate=1 / interlaced=0 / bluray_compat=0 / constrained_intra=0 / bframes=3 / b_pyramid=0 / b_adapt=1 / b_bias=0 / direct=3 / weightb=1 / open_gop=0 / weightp=2 / keyint=290 / keyint_min=29 / scenecut=40 / intra_refresh=0 / rc_lookahead=40 / rc=abr / mbtree=1 / bitrate=800 / ratetol=1.0 / qcomp=0.60 / qpmin=10 / qpmax=69 / qpstep=4 / vbv_maxrate=24000 / vbv_bufsize=24000 / nal_hrd=none / ip_ratio=1.40 / aq=1:1.00

Audio
ID                                       : 1
Format                                   : MPEG Audio
Format version                           : Version 1
Format profile                           : Layer 3
Codec ID                                 : 55
Codec ID/Hint                            : MP3
Duration                                 : 1h 43mn
Bit rate mode                            : Constant
Bit rate                                 : 128 Kbps
Channel(s)                               : 2 channels
Sampling rate                            : 44.1 KHz
Compression mode                         : Lossy
Stream size                              : 94.9 MiB (14%)
Alignment                                : Aligned on interleaves
Interleave, duration                     : 26 ms (0.78 video frame)


 
http://www.shotpix.com/images/38936265057387958972.png 
http://www.shotpix.com/images/33747624681403943297.png 
http://www.shotpix.com/images/89222467792059795043.png 
http://www.shotpix.com/images/42865444528490712941.png 
http://www.shotpix.com/images/09547840342107635837.png 
http://www.shotpix.com/images/17483437672802152410.png